<?xml version="1.0" standalone="no"?><!DOCTYPE svg PUBLIC "-//W3C//DTD SVG 1.1//EN" "http://www.w3.org/Graphics/SVG/1.1/DTD/svg11.dtd"><svg t="1610013846458" class="icon" viewBox="0 0 1024 1024" version="1.1" xmlns="http://www.w3.org/2000/svg" p-id="21228" xmlns:xlink="http://www.w3.org/1999/xlink" width="17" height="17"><defs><style type="text/css"></style></defs><path d="M73.288 585.002A73.142 73.142 0 0 0 0 657.924v292.934a73.142 73.142 0 0 0 73.288 72.923H950.7a73.142 73.142 0 0 0 73.289-72.923V657.924a73.142 73.142 0 0 0-146.284 0.147v183a36.571 36.571 0 0 1-36.279 36.499H182.562a36.571 36.571 0 0 1-36.278-36.498V658.07c0-40.375-33.06-73.142-72.996-73.142z m621.56-179.93v109.421c0 40.448 23.772 50.98 53.394 23.186l269.675-253.29a23.332 23.332 0 0 0 0.073-31.305L749.705 14.714c-30.28-26.843-54.856-15.945-54.856 24.795v109.64c-375.438-6.51-548.565 197.118-548.565 402.061 0 0 55.88-146.21 548.565-146.21z" p-id="21229"></path></svg>