<svg xmlns="http://www.w3.org/2000/svg" width="13" height="13.001" viewBox="0 0 13 13.001"><defs><style>.a{fill:;}</style></defs><path class="a" d="M102.4,103.886a.9.9,0,0,1,1.538-.634L108.9,108.2l4.96-4.944a.9.9,0,0,1,1.275,1.273l-5.57,5.541a.885.885,0,0,1-.66.267.9.9,0,0,1-.672-.267l-5.57-5.541A.893.893,0,0,1,102.4,103.886Zm0,5.654a.9.9,0,0,1,1.538-.634l4.963,4.944,4.96-4.944a.9.9,0,0,1,1.275,1.273l-5.57,5.541a.885.885,0,0,1-.66.267.9.9,0,0,1-.672-.267l-5.57-5.539A.893.893,0,0,1,102.4,109.54Z" transform="translate(-102.399 -102.986)"/></svg>