<svg xmlns="http://www.w3.org/2000/svg" width="32" height="32" viewBox="0 0 32 32"><defs><style>.a{fill:none;}.b{fill:;}</style></defs><g transform="translate(-1636 -1024)"><rect class="a" width="32" height="32" transform="translate(1636 1024)"/><path class="b" d="M41.359,98.239c0,10.21-6.707,17.562-16.571,17.885a13.249,13.249,0,0,1-9.588-2.858c2.858.323,6.707-.622,8.6-2.558a5.587,5.587,0,0,1-5.416-3.8h2.558c-2.558-.968-4.494-2.881-4.494-6.061a4.863,4.863,0,0,0,2.558.622c-2.236-1.268-3.5-5.416-1.913-7.974,2.858,3.181,6.361,6.061,12.146,6.361-1.613-6.361,6.707-9.588,10.21-5.416a12.374,12.374,0,0,0,3.8-1.613A4.292,4.292,0,0,1,40.69,96a5.455,5.455,0,0,0,3.181-.945A6.209,6.209,0,0,1,41.359,98.239Z" transform="translate(1622.064 935.421)"/></g></svg>