<svg xmlns="http://www.w3.org/2000/svg" xmlns:xlink="http://www.w3.org/1999/xlink" width="130" height="130" viewBox="0 0 130 130"><defs><style>.a{fill:none;}.b{fill:#fff;}.c{fill:url(#a);}.d{fill:#0e0f23;}.e{fill:#fefefe;}.f{fill:url(#b);}</style><linearGradient id="a" x1="0.5" x2="0.5" y2="1" gradientUnits="objectBoundingBox"><stop offset="0" stop-color="#ff945a"/><stop offset="1" stop-color="#ffc965"/></linearGradient><linearGradient id="b" y1="0.5" x2="1" y2="0.5" gradientUnits="objectBoundingBox"><stop offset="0" stop-color="#ffa15c"/><stop offset="1" stop-color="#ffb561"/></linearGradient></defs><g transform="translate(-549.521 -655.301)"><rect class="a" width="130" height="130" transform="translate(549.521 655.301)"/><path class="b" d="M634.248,780.795a43.48,43.48,0,0,1-5.186-.331c-7.906-.942-15.922-3.465-25.225-7.94a127.6,127.6,0,0,1-23.457-14.76c-3.188-2.51-6.285-5.2-9.2-7.987a6.348,6.348,0,0,1-.447-.483l-.02-.023a41.714,41.714,0,0,1-3.485-3.447l-.456-.488a87.9,87.9,0,0,1-9.208-11.5,49.129,49.129,0,0,1-7.176-15.207,21.94,21.94,0,0,1,.111-12.574,19.961,19.961,0,0,1,3.082-5.426s10.84-15.126,16.105-22.48l.392-.547q3.415-4.766,6.816-9.539a17.161,17.161,0,0,1,8.965-6.445,28.933,28.933,0,0,1,8.993-1.319c.643,0,1.311.016,1.986.05,6.836.336,13.912,2.072,22.269,5.461a120.266,120.266,0,0,1,27.1,15.576c1.652,1.237,3.249,2.558,4.794,3.836l1.1.911a107.244,107.244,0,0,1,9.795,9.183c6.52,6.9,11.045,13.274,14.244,20.059a34.258,34.258,0,0,1,1.637,4.129,29.735,29.735,0,0,1,1.626,7.125,19.592,19.592,0,0,1-.934,8.663,18.82,18.82,0,0,1-2.585,4.617l-4.865,6.785q-9.455,13.184-18.9,26.377a17.585,17.585,0,0,1-10.484,6.843,29.583,29.583,0,0,1-7.389.877Z"/><g transform="translate(551.582 662.364)"><path class="c" d="M573.094,748.733a44.875,44.875,0,0,1-3.888-3.87,86.551,86.551,0,0,1-8.995-11.231,47.516,47.516,0,0,1-6.894-14.572,19.961,19.961,0,0,1,.071-11.418,20.167,20.167,0,0,1,3.1-5.293q7.9-11.029,15.8-22.06,3.611-5.042,7.211-10.092a15.091,15.091,0,0,1,7.917-5.677,28.494,28.494,0,0,1,10.244-1.172c7.552.371,14.66,2.5,21.595,5.313A119.054,119.054,0,0,1,645.9,683.977c2,1.495,3.9,3.106,5.826,4.689a104.66,104.66,0,0,1,9.605,9.007A75.493,75.493,0,0,1,675.21,717.2a31.815,31.815,0,0,1,1.55,3.912,13.75,13.75,0,0,0-4.895-1.194c-.115-.214-.244-.424-.345-.646a49.9,49.9,0,0,0-3.183-5.887A88.6,88.6,0,0,0,653.4,695.737a125.5,125.5,0,0,0-21.373-15.974,100.085,100.085,0,0,0-19.307-9.046,53.769,53.769,0,0,0-16.152-3.168,21.4,21.4,0,0,0-8.93,1.372,9.794,9.794,0,0,0-6.311,8.408,18.036,18.036,0,0,0,.811,6.876,46.391,46.391,0,0,0,6.471,13.165,91.819,91.819,0,0,0,12.031,14.09,139.5,139.5,0,0,0,11.21,9.641,102.69,102.69,0,0,0,9.53,6.468,106.007,106.007,0,0,0,21.039,10.221c2.4.835,4.862,1.468,7.3,2.162l-2.345,3.243c-1.016-.252-2.03-.514-3.049-.751a.912.912,0,0,0-1.207.648.863.863,0,0,0,.741,1.079c.732.2,1.465.386,2.2.578a27.335,27.335,0,0,1-6.8,6.007A13.006,13.006,0,0,1,628.7,752.2a18.612,18.612,0,0,1-7.8-4.9,72.212,72.212,0,0,1-6.524-7.984,39.014,39.014,0,0,0-5.478-6.229,9.064,9.064,0,0,0-10.453-1.45,30.194,30.194,0,0,0-7.072,4.907c-2.883,2.508-5.571,5.233-8.55,7.633C579.953,746.491,576.891,748.4,573.094,748.733Zm31.62-25.369a.758.758,0,0,0,.8-.456.827.827,0,0,0-.14-.983,7.374,7.374,0,0,0-.78-.734c-2.946-2.5-5.787-5.127-8.541-7.838a92.252,92.252,0,0,1-8.065-8.962,51.074,51.074,0,0,1-7.957-13.586c-.42-1.132-.73-2.294-1.088-3.444a.917.917,0,0,0-.783-.732.883.883,0,0,0-.853.426,1.142,1.142,0,0,0-.016,1.032,39.807,39.807,0,0,0,2.33,6.337,64.367,64.367,0,0,0,10.085,14.785,134.485,134.485,0,0,0,9.812,9.9q2.049,1.905,4.14,3.766A1.309,1.309,0,0,0,604.714,723.364Zm-28.281-40.472c.038.326.085.745.135,1.164a.805.805,0,0,0,.9.791.827.827,0,0,0,.843-.925,16.846,16.846,0,0,0-.142-1.792.834.834,0,0,0-.971-.794.816.816,0,0,0-.763.927C576.436,682.44,576.433,682.618,576.433,682.892Z" transform="translate(-552.518 -663.301)"/><path class="d" d="M656.726,768.918l2.344-3.243a59.059,59.059,0,0,0,8.725,1.159,23.178,23.178,0,0,0,9.255-1.269,9.965,9.965,0,0,0,4.9-3.869c1.835-2.814,1.9-5.91,1.4-9.077a33.181,33.181,0,0,0-2.143-6.98,13.749,13.749,0,0,1,4.895,1.194,27.51,27.51,0,0,1,1.526,6.665,17.608,17.608,0,0,1-.824,7.767,16.82,16.82,0,0,1-2.319,4.108q-11.886,16.579-23.763,33.165a15.681,15.681,0,0,1-9.315,6.043,32.1,32.1,0,0,1-11.823.5c-8.68-1.035-16.761-3.992-24.577-7.751A124.823,124.823,0,0,1,591.94,782.8q-4.716-3.71-9.055-7.856c-.158-.151-.295-.327-.441-.49,3.8-.336,6.859-2.242,9.729-4.555,2.979-2.4,5.667-5.126,8.55-7.633a30.2,30.2,0,0,1,7.072-4.907,9.064,9.064,0,0,1,10.453,1.45,39.011,39.011,0,0,1,5.478,6.229,72.2,72.2,0,0,0,6.524,7.984,18.612,18.612,0,0,0,7.8,4.9,13.006,13.006,0,0,0,10.563-1.449,27.336,27.336,0,0,0,6.8-6.007c.434.092.864.213,1.3.267a.82.82,0,0,0,.921-.6.792.792,0,0,0-.305-.943A3,3,0,0,0,656.726,768.918Zm11.825,3.219a26.832,26.832,0,0,0,3.786-.276c.789-.1,1.154-.5,1.053-1.1-.094-.556-.555-.8-1.311-.678a31.291,31.291,0,0,1-5.552.229,55.916,55.916,0,0,1-6-.6.864.864,0,0,0-1.092.725c-.1.523.261.95.886,1.04A52.142,52.142,0,0,0,668.551,772.137Z" transform="translate(-561.868 -689.025)"/><path class="e" d="M684.921,721.84a33.182,33.182,0,0,1,2.143,6.98c.5,3.167.433,6.263-1.4,9.077a9.966,9.966,0,0,1-4.9,3.869,23.178,23.178,0,0,1-9.255,1.269,59.067,59.067,0,0,1-8.725-1.159c-2.442-.694-4.9-1.326-7.3-2.162a106,106,0,0,1-21.039-10.221,102.691,102.691,0,0,1-9.531-6.468,139.505,139.505,0,0,1-11.21-9.641,91.819,91.819,0,0,1-12.031-14.09,46.393,46.393,0,0,1-6.471-13.165,18.04,18.04,0,0,1-.811-6.876,9.794,9.794,0,0,1,6.311-8.408,21.4,21.4,0,0,1,8.93-1.372,53.771,53.771,0,0,1,16.153,3.168,100.088,100.088,0,0,1,19.307,9.046,125.508,125.508,0,0,1,21.373,15.974,88.6,88.6,0,0,1,14.938,17.645,49.912,49.912,0,0,1,3.184,5.887C684.677,721.416,684.806,721.626,684.921,721.84ZM624.6,688.279c-.447,0-.9-.036-1.339.007a6.273,6.273,0,0,0-4.031,1.575c-1.511,1.5-1.522,3.357-1.082,5.253a24.193,24.193,0,0,0,4.92,9.325,49.69,49.69,0,0,0,7.247,7.41,59.785,59.785,0,0,0,16.314,10,28.15,28.15,0,0,0,11.244,2.367,8.352,8.352,0,0,0,3.129-.633c2.247-.974,3.221-3.2,2.606-5.941a24.526,24.526,0,0,0-4.962-9.544,52.377,52.377,0,0,0-7-7.147c-1.469-1.3-3-2.515-4.579-3.66a53.855,53.855,0,0,0-13.15-7.116A27.355,27.355,0,0,0,624.6,688.279Z" transform="translate(-565.575 -665.227)"/><path class="e" d="M615.919,733.961a1.309,1.309,0,0,1-1.051-.492q-2.085-1.867-4.14-3.766a134.462,134.462,0,0,1-9.812-9.9,64.367,64.367,0,0,1-10.085-14.785,39.813,39.813,0,0,1-2.33-6.337,1.142,1.142,0,0,1,.016-1.032.883.883,0,0,1,.853-.426.917.917,0,0,1,.783.732c.358,1.15.668,2.312,1.088,3.444a51.072,51.072,0,0,0,7.957,13.586,92.245,92.245,0,0,0,8.065,8.962c2.754,2.711,5.595,5.333,8.541,7.838a7.373,7.373,0,0,1,.78.734.827.827,0,0,1,.14.983A.758.758,0,0,1,615.919,733.961Z" transform="translate(-563.723 -673.898)"/><path class="e" d="M688.535,779.138a3,3,0,0,1,.6.274.791.791,0,0,1,.305.943.82.82,0,0,1-.921.6c-.438-.054-.868-.175-1.3-.267-.732-.192-1.465-.382-2.2-.578a.863.863,0,0,1-.741-1.079.912.912,0,0,1,1.207-.648C686.5,778.624,687.518,778.886,688.535,779.138Z" transform="translate(-593.676 -699.245)"/><path class="e" d="M587.3,691.084c0-.274,0-.452,0-.63a.816.816,0,0,1,.763-.927.834.834,0,0,1,.971.794,16.83,16.83,0,0,1,.142,1.793.827.827,0,0,1-.843.925.805.805,0,0,1-.9-.791C587.384,691.829,587.336,691.409,587.3,691.084Z" transform="translate(-563.384 -671.492)"/><path class="e" d="M703.528,783.067a52.142,52.142,0,0,1-8.228-.662c-.624-.091-.987-.518-.886-1.04a.864.864,0,0,1,1.092-.725,55.916,55.916,0,0,0,6,.6,31.291,31.291,0,0,0,5.552-.229c.756-.118,1.217.122,1.311.678.1.6-.264.994-1.053,1.1A26.832,26.832,0,0,1,703.528,783.067Z" transform="translate(-596.845 -699.956)"/><path class="f" d="M635.313,696.822a27.352,27.352,0,0,1,9.321,1.9,53.855,53.855,0,0,1,13.15,7.116c1.577,1.145,3.11,2.363,4.579,3.66a52.38,52.38,0,0,1,7,7.147,24.525,24.525,0,0,1,4.962,9.544c.615,2.738-.359,4.966-2.606,5.941a8.354,8.354,0,0,1-3.129.633,28.154,28.154,0,0,1-11.244-2.367,59.79,59.79,0,0,1-16.314-10,49.685,49.685,0,0,1-7.247-7.41,24.191,24.191,0,0,1-4.92-9.325c-.44-1.9-.429-3.752,1.082-5.253a6.273,6.273,0,0,1,4.031-1.575C634.416,696.785,634.866,696.822,635.313,696.822Z" transform="translate(-576.291 -673.769)"/></g></g></svg>