<svg xmlns="http://www.w3.org/2000/svg" width="130.003" height="130" viewBox="0 0 130.003 130"><defs><style>.a{fill:none;}.b{fill:#1f1f1f;}.c{fill:#0657f9;}</style></defs><g transform="translate(-549.518 -655.301)"><rect class="a" width="130" height="130" transform="translate(549.521 655.301)"/><g transform="translate(1095.655 659.118)"><g transform="translate(-520.539 23.47)"><path class="b" d="M-464.849,69.03a8.948,8.948,0,0,0-5.524-8.1,26.769,26.769,0,0,0-7.31-1.864,20.187,20.187,0,0,1-6.246-1.486,4.814,4.814,0,0,1-1.962-6.522,4.82,4.82,0,0,1,1.139-1.4,8.4,8.4,0,0,1,5.885-1.3,6.111,6.111,0,0,1,6.145,4.4,1.667,1.667,0,0,0,1.7,1.208c.967.02,1.933.015,2.9,0,1.62,0,2.219-.748,1.878-2.309a10.8,10.8,0,0,0-8.872-8.291c-.62-.1-.88-.291-.827-.931.048-.683.011-1.371,0-2.057s0-1.309,0-1.965a1.946,1.946,0,0,0-1.716-2.152,1.939,1.939,0,0,0-.409,0c-.81-.02-1.62,0-2.422,0-1.512,0-2.215.693-2.248,2.229-.019.881,0,1.745,0,2.619,0,1.816,0,1.816-1.715,2.24a10.738,10.738,0,0,0-8.9,9.566,9.129,9.129,0,0,0,5.9,10.172,25.435,25.435,0,0,0,6.228,1.593,23.919,23.919,0,0,1,6.514,1.575,4.841,4.841,0,0,1,2.633,6.322,4.789,4.789,0,0,1-.371.72,6.508,6.508,0,0,1-5.4,3.226c-4.214.4-8.631-.659-9.485-5.664a1.5,1.5,0,0,0-1.653-1.23c-1.1,0-2.185-.024-3.276,0-1.359.027-1.945.678-1.735,2.038a11.3,11.3,0,0,0,2.976,6.22,13.461,13.461,0,0,0,7.648,3.808c.661.123.954.33.921,1.06-.062,1.369-.024,2.742-.012,4.116a1.781,1.781,0,0,0,1.607,1.939,1.789,1.789,0,0,0,.287,0c.905.029,1.81.017,2.714.011a1.916,1.916,0,0,0,2.142-1.662,1.881,1.881,0,0,0,0-.442c.022-1.058,0-2.119,0-3.18,0-1.63,0-1.611,1.583-2.029A11.664,11.664,0,0,0-464.849,69.03Z" transform="translate(518.624 -24.962)"/><path class="b" d="M-440.017,53.208a38.737,38.737,0,0,0-26.141-28.434c-1.4-.5-2.237.119-2.292,1.622-.036,1-.027,2,0,2.992a2.548,2.548,0,0,0,1.838,2.531A32.5,32.5,0,0,1-445.7,62.233a28.12,28.12,0,0,1-.416,5.21A32.516,32.516,0,0,1-466.7,92.795c-.815.312-1.583.706-1.685,1.683a20.979,20.979,0,0,0,0,4.2,1.381,1.381,0,0,0,1.481,1.272,1.4,1.4,0,0,0,.526-.147c.642-.236,1.292-.453,1.935-.691A38.98,38.98,0,0,0-440.017,53.208Z" transform="translate(517.685 -24.528)"/><path class="b" d="M-491.82,92.556a30.672,30.672,0,0,1-4.559-2.15,32.106,32.106,0,0,1-15.985-32.875,31.779,31.779,0,0,1,20.221-25.7c1.936-.823,2.2-1.142,2.178-3.278V27.9c0-.592.04-1.186,0-1.776a1.507,1.507,0,0,0-1.419-1.591,1.514,1.514,0,0,0-.721.137,40.537,40.537,0,0,0-12.492,6.6,39.031,39.031,0,0,0-13.186,42.362,38.631,38.631,0,0,0,25.478,25.859c1.3.453,2.13,0,2.336-1.616a20.413,20.413,0,0,0,.02-2.614A2.584,2.584,0,0,0-491.82,92.556Z" transform="translate(519.562 -24.525)"/></g><path class="c" d="M-421.23,35.862a64.51,64.51,0,0,0-13.908-20.688,65.255,65.255,0,0,0-20.7-13.9,64.429,64.429,0,0,0-19.438-4.819v-.018c-1.906-.171-3.817-.247-5.728-.249-.056,0-.112,0-.168,0-.013,0-.026,0-.039,0a65.433,65.433,0,0,0-12.568,1.236A4.372,4.372,0,0,0-497.22,2.56,4.375,4.375,0,0,0-492.081,6a56.168,56.168,0,0,1,11.412-1.061q.959.009,1.911.048c.309.013.617.028.926.046.562.033,1.12.078,1.678.128.293.026.588.045.88.076v0a56.256,56.256,0,0,1,50.322,55.88,56.247,56.247,0,0,1-56.218,56.19,56.247,56.247,0,0,1-56.218-56.19,55.524,55.524,0,0,1,19.98-42.876v6.917a4.373,4.373,0,0,0,4.373,4.37,4.373,4.373,0,0,0,4.377-4.37V7.473a4.4,4.4,0,0,0-1.306-3.133,4.4,4.4,0,0,0-3.134-1.3h-17.695a4.373,4.373,0,0,0-4.374,4.372,4.373,4.373,0,0,0,4.374,4.373h7.379A65.833,65.833,0,0,0-539.15,31.75a62.733,62.733,0,0,0-6.791,23.885l-.2-.456v5.938a64.5,64.5,0,0,0,5.093,25.322,64.535,64.535,0,0,0,13.907,20.688,65.286,65.286,0,0,0,20.7,13.9,65.756,65.756,0,0,0,25.269,5.156,64.6,64.6,0,0,0,25.334-5.09,64.564,64.564,0,0,0,20.7-13.9A65.253,65.253,0,0,0-421.23,86.5a64.513,64.513,0,0,0,5.093-25.322A64.5,64.5,0,0,0-421.23,35.862Z" transform="translate(0 0)"/></g></g></svg>