<svg xmlns="http://www.w3.org/2000/svg" width="130" height="130" viewBox="0 0 130 130"><defs><style>.a{fill:#006ae3;}.b{fill:#fff;}</style></defs><g transform="translate(-174.896 -524.25)"><path class="a" d="M174.9,589.25a65,65,0,1,1,65,65A65,65,0,0,1,174.9,589.25Z"/><path class="b" d="M266.932,634.932v-54.08h5.888v54.08Z" transform="translate(-29.72 -18.278)"/><path class="b" d="M288.256,591.189l-18.185,4.823-4.056-18.876,5.407-1.222,2.132,8.944a14.736,14.736,0,0,0-1.638-16.406c-3.861-4.29-5.694-4.472-10.022-5.148-3.809-.546-12.661.741-15.3,11.076-1.118,6.656.143,11.583,8.722,18.031l-.481,7.176s-9.58-6.747-12.05-11.479c-1.911-3.744-5.186-11.141.728-21.437,3.185-5.148,9.463-10.088,20.525-9.568,5.564.234,19.147,7.033,17.041,22.919a35.669,35.669,0,0,1-1.911,6.942l7.461-1.664Z" transform="translate(-21.069 -10.597)"/><path class="b" d="M274.841,654.118c-3.328,5.057-9.736,9.828-20.772,9.022-5.564-.377-18.952-7.54-16.431-23.361a35.5,35.5,0,0,1,2.093-6.877l-7.5,1.456-1.469-5.915,18.315-4.342,3.561,18.98-5.446,1.079-1.9-9.009a14.752,14.752,0,0,0,1.2,16.446c3.744,4.394,5.564,4.614,9.892,5.408,3.783.65,12.674-.416,15.585-10.673,1.287-6.617.156-11.583-8.241-18.265l.676-7.164s9.4,6.994,11.738,11.791C277.935,636.5,281.015,643.992,274.841,654.118Z" transform="translate(-18.04 -31.211)"/></g></svg>