<svg xmlns="http://www.w3.org/2000/svg" width="248.902" height="248.902" viewBox="0 0 248.902 248.902"><defs><style>.a{fill:;}</style></defs><path class="a" d="M672.5,36.5a88,88,0,1,0,88,88A88,88,0,0,0,672.5,36.5Zm29.83,48.226c4.393,0,7.955,7.791,7.955,17.4s-3.562,17.4-7.955,17.4-7.955-7.791-7.955-17.4S697.937,84.726,702.33,84.726Zm-58.666,0c4.393,0,7.955,7.791,7.955,17.4s-3.562,17.4-7.955,17.4-7.955-7.791-7.955-17.4S639.271,84.726,643.664,84.726Zm83.313,70.2-4.2-4.21a58.181,58.181,0,0,1-99.9-3.906,2.983,2.983,0,1,1,5.239-2.854,52.218,52.218,0,0,0,89.15,4.288l-6.144-.349a1,1,0,0,1-.5-1.818l14.127-9.52a1,1,0,0,1,1.541.686l2.379,16.84A.994.994,0,0,1,726.977,154.926Z" transform="translate(-439.113 511.945) rotate(-45)"/></svg>