<svg xmlns="http://www.w3.org/2000/svg" width="32" height="32" viewBox="0 0 32 32"><defs><style>.a{fill:none;}.b{fill:;}</style></defs><g transform="translate(-1845 -1032)"><rect class="a" width="32" height="32" transform="translate(1845 1032)"/><path class="b" d="M106,222.474a2.86,2.86,0,1,1,2.652-2.852A2.759,2.759,0,0,1,106,222.474Zm-9.7,0a2.86,2.86,0,1,1,2.652-2.852A2.759,2.759,0,0,1,96.3,222.474Zm19.378-4.717a33.483,33.483,0,0,0-2.929-8.063,12.948,12.948,0,0,0-7.446-2.775l-.231.385a16.688,16.688,0,0,1,6.86,3.407,23.253,23.253,0,0,0-21.567,0,16.688,16.688,0,0,1,6.86-3.407L97,206.919a12.917,12.917,0,0,0-7.446,2.775,33.8,33.8,0,0,0-2.929,8.063,42.79,42.79,0,0,0-.863,7.215,9.987,9.987,0,0,0,3.392,2.9,10.362,10.362,0,0,0,4.625,1.095l1.8-2.158a9.972,9.972,0,0,1-4.609-3.052,19.02,19.02,0,0,0,20.38,0,9.972,9.972,0,0,1-4.609,3.052l1.8,2.158a10.577,10.577,0,0,0,4.625-1.095,9.987,9.987,0,0,0,3.391-2.9,43.83,43.83,0,0,0-.879-7.215Z" transform="translate(1759.737 830.377)"/></g></svg>