<svg xmlns="http://www.w3.org/2000/svg" width="126.005" height="126" viewBox="0 0 126.005 126"><defs><style>.a{fill:#1f1f1f;}</style></defs><path class="a" d="M496.662,405.529a63,63,0,1,0,89.1,0A63,63,0,0,0,496.662,405.529Zm39.515,9.313c2.224-2.224,7.971-.083,12.836,4.781s7.005,10.612,4.781,12.836-7.971.083-12.835-4.782S533.954,417.066,536.178,414.842Zm-29.7,29.7c2.224-2.224,7.971-.083,12.836,4.781s7.005,10.612,4.781,12.835-7.971.083-12.835-4.782S504.255,446.763,506.479,444.54Zm77.715-6.639-4.258-.005a41.654,41.654,0,0,1-52.551,48.594,2.135,2.135,0,0,1,1.191-4.1l.016.005a37.383,37.383,0,0,0,47.3-42.959l-3.287,2.934a.716.716,0,0,1-1.173-.667l2.333-11.971a.716.716,0,0,1,1.128-.433l9.729,7.321a.711.711,0,0,1-.43,1.283Z" transform="translate(-478.209 -387.077)"/></svg>